<svg width="57" height="54" viewBox="0 0 57 54" fill="none" xmlns="http://www.w3.org/2000/svg">
<path d="M53.58 27.5483C53.58 25.8376 53.4138 24.1926 53.105 22.6135H28.5V31.9568H42.56C41.9425 34.9616 40.09 37.5058 37.3112 39.2165V45.2919H45.79C50.73 41.0808 53.58 34.8958 53.58 27.5483Z" fill="#4285F4"/>
<path d="M28.5 51.126C35.5537 51.126 41.4675 48.9765 45.79 45.2919L37.3112 39.2165C34.9837 40.664 32.015 41.5414 28.5 41.5414C21.7075 41.5414 15.9362 37.3083 13.87 31.6058H5.17749V37.8347C9.47624 45.7086 18.2875 51.126 28.5 51.126Z" fill="#34A853"/>
<path d="M13.87 31.5839C13.3475 30.1363 13.0387 28.6011 13.0387 27C13.0387 25.3989 13.3475 23.8636 13.87 22.416V16.1871H5.1775C3.39625 19.4332 2.375 23.0959 2.375 27C2.375 30.904 3.39625 34.5668 5.1775 37.8128L11.9463 32.9437L13.87 31.5839Z" fill="#FBBC05"/>
<path d="M28.5 12.4806C32.3475 12.4806 35.7675 13.7088 38.4987 16.0775L45.98 9.16871C41.4437 5.26469 35.5537 2.87402 28.5 2.87402C18.2875 2.87402 9.47624 8.29141 5.17749 16.1872L13.87 22.4161C15.9362 16.7136 21.7075 12.4806 28.5 12.4806Z" fill="#EA4335"/>
</svg>
